<?xml version="1.0" encoding="UTF-8" standalone="no"?>
<svg xmlns="http://www.w3.org/2000/svg" width="256" height="256" viewBox="0 0 256 256">
  <rect
    x="16"
    y="16"
    width="224"
    height="224"
    rx="52"
    fill="#ffffff"
    stroke="#ece8e1"
    stroke-width="8"
  />
  <svg
    x="82"
    y="38"
    width="92"
    height="180"
    viewBox="10.3 10.3 55.3 100.6"
    overflow="visible"
  >
    <g transform="translate(-48.408066 -771.78134)">
      <path
        d="M86.899608 863.09384c1.28987 7.3524 3.39669 11.0286 6.32049 11.0285 2.92369.0001 5.56796-1.8273 7.932812-5.482h11.15756c-2.57985 4.3856-5.3746 7.7179-8.38428 9.9966-3.26777 2.4508-7.481412 3.6762-12.640942 3.6762-6.06249 0-10.34065-2.7732-12.83441-8.3198l-4.19213 6.4495h-15.22072c4.60061-6.3204 8.64227-12.4474 12.12498-18.3809-.42997-3.3537-.64497-6.8364-.64494-10.4481-.00003-6.5355.66644-13.07085 1.99934-19.60635 4.94456-24.12085 9.69564-38.91157 14.25326-44.37218 2.88074-3.48261 8.14778-5.22395 15.801172-5.22405 7.5243.0001 11.28647 3.71927 11.28654 11.15753-.00007 3.05284-.40854 6.72902-1.22542 11.02858-3.09577 16.38164-11.67352 35.88037-25.733312 58.49647m-3.28921-16.8331c7.95431-14.79065 13.19986-28.24845 15.73668-40.3735 1.289842-6.19137 1.934782-9.52361 1.934812-9.99664-.00003-2.96665-.53749-4.45003-1.612362-4.45013-4.8586 3.65479-9.28724 16.0162-13.28584 37.08434-1.28994 6.75048-2.21434 12.66243-2.77329 17.73593"
        fill="#111111"
      />
    </g>
  </svg>
</svg>
